<?xml version="1.0" standalone="no"?>
<!DOCTYPE svg PUBLIC "-//W3C//DTD SVG 20010904//EN"
 "http://www.w3.org/TR/2001/REC-SVG-20010904/DTD/svg10.dtd">
<svg version="1.0" xmlns="http://www.w3.org/2000/svg"
 width="512.000000pt" height="512.000000pt" viewBox="0 0 512.000000 512.000000"
 preserveAspectRatio="xMidYMid meet">

<g transform="translate(0.000000,512.000000) scale(0.100000,-0.100000)"
fill="#000000" stroke="none">
<path d="M2026 3948 c-35 -20 -1493 -1326 -1500 -1343 -8 -21 -8 -69 0 -90 7
-17 1462 -1321 1498 -1342 49 -29 116 -8 141 42 13 28 15 89 15 394 l0 361 23
5 c28 7 150 32 1322 276 528 110 977 204 997 210 104 27 104 171 0 198 -20 6
-469 100 -997 210 -1172 244 -1294 269 -1322 276 l-23 5 0 360 c0 199 -4 370
-9 383 -23 59 -93 85 -145 55z m-56 -608 c0 -316 4 -341 62 -364 18 -7 464
-103 990 -212 527 -109 958 -201 958 -204 0 -3 -431 -95 -958 -204 -526 -109
-972 -205 -990 -212 -58 -23 -62 -48 -62 -364 0 -154 -2 -280 -5 -280 -3 0
-133 114 -289 252 -155 139 -401 359 -547 488 -145 129 -284 254 -309 278
l-45 42 45 43 c25 23 207 186 405 362 197 176 443 395 545 487 102 92 188 167
193 167 4 1 7 -125 7 -279z"/>
</g>
</svg>
