<?xml version="1.0" standalone="no"?>
<!DOCTYPE svg PUBLIC "-//W3C//DTD SVG 20010904//EN"
 "http://www.w3.org/TR/2001/REC-SVG-20010904/DTD/svg10.dtd">
<svg version="1.0" xmlns="http://www.w3.org/2000/svg"
 width="512.000000pt" height="512.000000pt" viewBox="0 0 512.000000 512.000000"
 preserveAspectRatio="xMidYMid meet">

<g transform="translate(0.000000,512.000000) scale(0.100000,-0.100000)"
fill="#000000" stroke="none">
<path d="M2984 3942 c-43 -34 -44 -46 -44 -426 0 -339 -1 -365 -17 -370 -10
-3 -529 -111 -1153 -241 -624 -130 -1152 -241 -1172 -246 -104 -27 -104 -171
0 -198 20 -5 548 -116 1172 -246 624 -130 1143 -238 1153 -241 16 -5 17 -31
17 -366 0 -304 2 -365 15 -393 24 -50 88 -70 138 -44 31 17 1485 1317 1497
1339 13 24 13 76 0 100 -12 22 -1466 1322 -1498 1339 -31 16 -84 13 -108 -7z
m1353 -1385 c-2 -6 -268 -248 -593 -537 l-589 -526 -5 296 c-6 329 -7 338 -72
359 -18 6 -359 78 -758 161 -399 83 -777 162 -840 175 -63 13 -163 34 -223 46
-59 12 -107 25 -107 29 0 4 100 27 223 53 1318 274 1708 357 1727 367 45 24
50 59 50 365 l0 285 595 -531 c328 -292 594 -536 592 -542z"/>
</g>
</svg>
